<svg xmlns="http://www.w3.org/2000/svg" enable-background="new 0 0 24 24" viewBox="0 0 24 24" id="phone-lock"><path d="M15.5,24h-11C3.1,24,2,22.9,2,21.5v-19C2,1.1,3.1,0,4.5,0h11C16.9,0,18,1.1,18,2.5v1C18,3.8,17.8,4,17.5,4S17,3.8,17,3.5
				v-1C17,1.7,16.3,1,15.5,1h-11C3.7,1,3,1.7,3,2.5v19C3,22.3,3.7,23,4.5,23h11c0.8,0,1.5-0.7,1.5-1.5v-1c0-0.3,0.2-0.5,0.5-0.5
				s0.5,0.2,0.5,0.5v1C18,22.9,16.9,24,15.5,24z"></path><path d="M12.5,3h-3C9.2,3,9,2.8,9,2.5S9.2,2,9.5,2h3C12.8,2,13,2.2,13,2.5S12.8,3,12.5,3z"></path><circle cx="7.5" cy="2.5" r=".5"></circle><path d="M20.8,16.8c0,0-0.1,0-0.1,0c-0.3-0.1-0.4-0.4-0.3-0.6c0.4-1.5,0.7-3.1,0.7-4.7v-0.9c0-0.9-0.4-1.8-1-2.5
				c-0.7-0.7-1.5-1-2.5-1C15.6,7,14,8.6,14,10.5v0.9c0,1.6-0.2,3.2-0.6,4.8c-0.1,0.3-0.3,0.4-0.6,0.4c-0.3-0.1-0.4-0.3-0.4-0.6
				c0.4-1.5,0.6-3,0.6-4.5v-0.9C13,8,15,6,17.5,6c1.2,0,2.3,0.5,3.2,1.3c0.9,0.9,1.3,2,1.3,3.2v0.9c0,1.7-0.2,3.4-0.7,5
				C21.2,16.6,21,16.8,20.8,16.8z"></path><path d="M14.6 17.5c-.1 0-.1 0-.2 0-.3-.1-.4-.4-.3-.6.4-1.1.6-2.2.8-3.3 0-.3.3-.5.6-.4.3 0 .5.3.4.6-.1 1.2-.4 2.4-.8 3.5C15 17.4 14.8 17.5 14.6 17.5zM19.5 12.1C19.5 12.1 19.5 12.1 19.5 12.1c-.3 0-.5-.2-.5-.5l0-1.1c0-.4-.2-.8-.4-1.1C18.3 9.2 17.9 9 17.5 9 16.7 9 16 9.7 16 10.5v.8c0 .3-.2.5-.5.5S15 11.6 15 11.3v-.8C15 9.1 16.1 8 17.5 8c.7 0 1.3.3 1.8.7.5.5.7 1.1.7 1.8l0 1.1C20 11.9 19.8 12.1 19.5 12.1zM18.5 17.8c-.1 0-.1 0-.2 0-.3-.1-.4-.4-.3-.6.4-1.1.6-2.2.8-3.3 0-.3.3-.5.6-.4.3 0 .5.3.4.6-.2 1.2-.5 2.4-.9 3.5C18.9 17.7 18.7 17.8 18.5 17.8z"></path><path d="M16.4,18c-0.1,0-0.1,0-0.2,0c-0.3-0.1-0.4-0.4-0.3-0.6c0.7-1.9,1-3.9,1-5.9v-0.9c0-0.3,0.2-0.5,0.5-0.5s0.5,0.2,0.5,0.5
				v0.9c0,2.1-0.4,4.2-1.1,6.2C16.8,17.8,16.6,18,16.4,18z"></path></svg>