<svg xmlns="http://www.w3.org/2000/svg" viewBox="0 0 64 64" id="credit"><g data-name="Layer 2"><path d="M18 42h20v2H18zM18 37h7v2h-7zM18 32h5v2h-5zM18 27h5v2h-5zM18 22h5v2h-5z"></path><path d="M56 11H45V8a5 5 0 0 0-5-5H8a5 5 0 0 0-5 5v10a1 1 0 0 0 1 1h7v37a5 5 0 0 0 5 5h32a5 5 0 0 0 5-5v-6a1 1 0 0 0-1.6-.8l-4.74 3.55L45 51.5V37h11a5 5 0 0 0 5-5V16a5 5 0 0 0-5-5Zm3 5v3H27v-3a3 3 0 0 1 3-3h26a3 3 0 0 1 3 3Zm0 8H27v-3h32ZM5 17V8a3 3 0 0 1 6 0v9Zm42.26 37.8L51 52v4a3 3 0 0 1-3 3H20a5 5 0 0 0 1-3v-4l3.73 2.8a1 1 0 0 0 1.2 0l4.73-3.55 4.73 3.55a1 1 0 0 0 1.2 0l4.74-3.55 4.73 3.55a1 1 0 0 0 1.2 0ZM43 50l-1.08-.81a1 1 0 0 0-1.19 0L36 52.75l-4.74-3.55a1 1 0 0 0-1.2 0l-4.73 3.55-4.73-3.55a1 1 0 0 0-1.6.8v6a3 3 0 0 1-6 0V8a5.28 5.28 0 0 0-1-3h28a3 3 0 0 1 3 3v3H30a5 5 0 0 0-5 5v16a5 5 0 0 0 5 5h13Zm13-15H30a3 3 0 0 1-3-3v-6h32v6a3 3 0 0 1-3 3Z"></path><path d="M53 28a3 3 0 1 0 3 3 3 3 0 0 0-3-3Zm0 4a1 1 0 1 1 1-1 1 1 0 0 1-1 1Z"></path></g></svg>