<svg width="35" height="34" viewBox="0 0 35 34" fill="none" xmlns="http://www.w3.org/2000/svg">
<path d="M3.54053 14.076L15.8576 4.22235C16.8857 3.39984 18.3467 3.39984 19.3748 4.22235L31.6919 14.076" stroke="#003471" stroke-width="1.58351" stroke-linecap="round" stroke-linejoin="round"/>
<path d="M14.0661 5.69958L8.43582 10.2742C7.41358 11.1048 6.90245 11.52 6.62919 12.0941C6.35596 12.6682 6.35596 13.3268 6.35596 14.6439V19.7057C6.35596 25.0139 6.35596 27.6682 8.00502 29.3171C9.6541 30.9662 12.3082 30.9662 17.6165 30.9662C22.9247 30.9662 25.579 30.9662 27.2279 29.3171C28.8771 27.6682 28.8771 25.0139 28.8771 19.7057V14.6439C28.8771 13.3268 28.8771 12.6682 28.6038 12.0941C28.3305 11.52 27.8194 11.1048 26.7972 10.2742L21.167 5.69958C19.4663 4.31783 18.616 3.62695 17.6165 3.62695C16.617 3.62695 15.7667 4.31783 14.0661 5.69958Z" stroke="#003471" stroke-width="1.58351"/>
<path d="M14.4492 22.873H20.7833" stroke="#003471" stroke-width="1.58351" stroke-linecap="round"/>
</svg>
