<svg xmlns="http://www.w3.org/2000/svg" width="550" height="550" id="notification"><path fill="none" stroke="#000" stroke-linejoin="round" stroke-miterlimit="10" stroke-width="20" d="M241.216 497.5c.09 18 15.122 33.494 33.656 33.494s33.566-15.494 33.654-33.494h-67.31zm220.271-66.586c-23.013-35.945-41.844-52.878-41.844-52.878l8.295-137.507c0-65.093-40.474-119.747-97.515-141.622.908-4.16 1.076-8.515 1.076-12.971v-9.82c0-31.638-25.364-57.285-57-57.285-31.64 0-57 25.647-57 57.285v9.82c0 4.444.629 8.764 1.572 12.915-57.022 21.806-97.127 76.281-97.127 141.371l8.354 137.829s-18.799 17.232-41.812 53.178C65.473 467.172 84.02 497.5 129.664 497.5h290.677c45.644 0 64.16-30.643 41.146-66.586zM249.5 85.936v-9.82c0-13.536 10.963-24.551 24.5-24.551s24.5 11.015 24.5 24.551v9.82c0 1.568.434 3.099.154 4.585-7.908-1.232-15.727-1.88-23.998-1.883-8.27.003-16.547.648-24.453 1.874-.332-1.483-.703-3.011-.703-4.576zm25.416 2.702h.067-.067z"></path></svg>